<svg xmlns="http://www.w3.org/2000/svg" viewBox="0 0 24 24"><path d="M15.2 7.5h-9c-.7 0-1.3.6-1.3 1.3v5.8h1.3c0 1.1.9 1.9 1.9 1.9s1.9-.9 1.9-1.9h3.9c0 1.1.9 1.9 1.9 1.9 1.1 0 1.9-.9 1.9-1.9H19v-3.2l-3.8-3.9zm-1.3 1.3h.6l1.9 1.9h-2.6V8.8zm-3.8 0h2.6v1.9h-2.6V8.8zm-3.9 0h2.6v1.9H6.2V8.8zm1.9 6.6c-.4 0-.8-.3-.9-.7 0-.4.3-.8.7-.9h.2c.4 0 .8.5.7.9 0 .3-.3.6-.7.7zm7.8 0c-.4 0-.8-.4-.8-.8s.4-.8.8-.8.8.4.8.8-.4.8-.8.8zm1.9-2.1h-.5c-.7-.8-1.9-.9-2.7-.2l-.2.2H9.6c-.7-.8-1.9-.9-2.7-.2l-.2.2h-.5V12h11.6v1.3z"/><path d="M12 1.5c5.8 0 10.5 4.7 10.5 10.5S17.8 22.5 12 22.5 1.5 17.8 1.5 12 6.2 1.5 12 1.5M12 0C5.4 0 0 5.4 0 12s5.4 12 12 12 12-5.4 12-12S18.6 0 12 0z"/></svg>