<svg xmlns="http://www.w3.org/2000/svg" viewBox="0 0 24 24"><path d="M12 1.5c5.8 0 10.5 4.7 10.5 10.5S17.8 22.5 12 22.5 1.5 17.8 1.5 12 6.2 1.5 12 1.5M12 0C5.4 0 0 5.4 0 12s5.4 12 12 12 12-5.4 12-12S18.6 0 12 0z"/><path d="M8.3 11.9h1.1V7.3c.4-.1.8-.1 1.2-.2.5 0 .9-.1 1.4-.1.5 0 1 0 1.4.1s.8.2 1.2.5.6.5.8.9c.2.4.3.9.3 1.5s-.1 1.1-.3 1.4c-.2.4-.5.7-.8 1-.3.3-.7.4-1.1.5-.4.1-.8.2-1.3.2h-1v.9h2.2v1.3h-2.2V17H9.4v-1.7H8.3V14h1.1v-.8H8.3v-1.3zm3.8-3.3h-.9v3.2h.8c.3 0 .5 0 .7-.1l.6-.3c.2-.1.3-.3.4-.5.1-.2.1-.5.1-.8 0-.6-.2-1-.5-1.2-.3-.2-.7-.3-1.2-.3z"/></svg>