<?xml version="1.0" encoding="utf-8"?>
<!-- Generator: Adobe Illustrator 23.0.1, SVG Export Plug-In . SVG Version: 6.00 Build 0)  -->
<svg version="1.1" id="Слой_1" xmlns="http://www.w3.org/2000/svg" xmlns:xlink="http://www.w3.org/1999/xlink" x="0px" y="0px"
	 viewBox="0 0 24 24" style="enable-background:new 0 0 24 24;" xml:space="preserve">
<path d="M15.2,7.5h-9c-0.7,0-1.3,0.6-1.3,1.3c0,0,0,0,0,0v5.8h1.3c0,1.1,0.9,1.9,1.9,1.9s1.9-0.9,1.9-1.9c0,0,0,0,0,0h3.9
	c0,1.1,0.9,1.9,1.9,1.9c1.1,0,1.9-0.9,1.9-1.9h1.3v-3.2L15.2,7.5z M13.9,8.8h0.6l1.9,1.9h-2.6V8.8z M10.1,8.8h2.6v1.9h-2.6L10.1,8.8
	z M6.2,8.8h2.6v1.9H6.2L6.2,8.8z M8.1,15.4c-0.4,0-0.8-0.3-0.9-0.7c0-0.4,0.3-0.8,0.7-0.9c0.1,0,0.1,0,0.2,0c0.4,0,0.8,0.5,0.7,0.9
	C8.8,15,8.5,15.3,8.1,15.4z M15.9,15.4c-0.4,0-0.8-0.4-0.8-0.8s0.4-0.8,0.8-0.8s0.8,0.4,0.8,0.8l0,0C16.7,15,16.3,15.4,15.9,15.4
	C15.9,15.4,15.9,15.4,15.9,15.4z M17.8,13.3h-0.5c-0.7-0.8-1.9-0.9-2.7-0.2c-0.1,0.1-0.1,0.1-0.2,0.2H9.6c-0.7-0.8-1.9-0.9-2.7-0.2
	c-0.1,0.1-0.1,0.1-0.2,0.2H6.2V12h11.6V13.3z"/>
<path d="M12,1.5c5.8,0,10.5,4.7,10.5,10.5S17.8,22.5,12,22.5S1.5,17.8,1.5,12C1.5,6.2,6.2,1.5,12,1.5 M12,0C5.4,0,0,5.4,0,12
	s5.4,12,12,12s12-5.4,12-12S18.6,0,12,0z"/>
</svg>
