<?xml version="1.0" encoding="utf-8"?>

<svg version="1.1" xmlns="http://www.w3.org/2000/svg" xmlns:xlink="http://www.w3.org/1999/xlink" x="0px" y="0px"
	 viewBox="0 0 24 24" style="enable-background:new 0 0 24 24;" xml:space="preserve">
  <path d="M12,1.5c5.8,0,10.5,4.7,10.5,10.5S17.8,22.5,12,22.5S1.5,17.8,1.5,12C1.5,6.2,6.2,1.5,12,1.5 M12,0C5.4,0,0,5.4,0,12
    s5.4,12,12,12s12-5.4,12-12S18.6,0,12,0z"/>
	<path d="M8.3,11.9h1.1V7.3c0.4-0.1,0.8-0.1,1.2-0.2C11.1,7.1,11.5,7,12,7c0.5,0,1,0,1.4,0.1s0.8,0.2,1.2,0.5s0.6,0.5,0.8,0.9
		c0.2,0.4,0.3,0.9,0.3,1.5c0,0.6-0.1,1.1-0.3,1.4c-0.2,0.4-0.5,0.7-0.8,1c-0.3,0.3-0.7,0.4-1.1,0.5c-0.4,0.1-0.8,0.2-1.3,0.2
		c-0.1,0-0.3,0-0.5,0c-0.2,0-0.4,0-0.5,0V14h2.2v1.3h-2.2V17H9.4v-1.7H8.3V14h1.1v-0.8H8.3V11.9z M12.1,8.6c-0.2,0-0.4,0-0.5,0
		c-0.2,0-0.3,0-0.4,0v3.2c0.1,0,0.2,0,0.4,0c0.2,0,0.3,0,0.4,0c0.3,0,0.5,0,0.7-0.1c0.2-0.1,0.4-0.2,0.6-0.3s0.3-0.3,0.4-0.5
		c0.1-0.2,0.1-0.5,0.1-0.8c0-0.6-0.2-1-0.5-1.2C13,8.7,12.6,8.6,12.1,8.6z"/>
</svg>
